# xmcd CD database file
#
# Track frame offsets:
#	150
#	22097
#	51580
#	77602
#	98767
#	127980
#	157609
#	182177
#	206570
#	229885
#
# Disc length: 3374 seconds
#
# Revision: 0
# Processed by: cddbd v1.5.1PL0 Copyright (c) Steve Scherf et al.
# Submitted via: CDex 1.50Beta7
#
DISCID=7c0d2c0a
DTITLE=Hendrik Meurkens - In a sentimental mood
DYEAR=1999
DGENRE=Jazz
TTITLE0=Someday my prince will come
TTITLE1=In a sentimental mood
TTITLE2=Balao de Janeiro
TTITLE3=Wonderful
TTITLE4=A Ra
TTITLE5=Rapaz de Bem
TTITLE6=Ceora
TTITLE7=Muito a vontade
TTITLE8=Luisa
TTITLE9=Solar
EXTD=YEAR: 1999
EXTT0=
EXTT1=
EXTT2=
EXTT3=
EXTT4=
EXTT5=
EXTT6=
EXTT7=
EXTT8=
EXTT9=
PLAYORDER=
